<?xml version="1.0" encoding="UTF-8" standalone="no"?>
<svg
   xmlns:dc="http://purl.org/dc/elements/1.1/"
   xmlns:cc="http://creativecommons.org/ns#"
   xmlns:rdf="http://www.w3.org/1999/02/22-rdf-syntax-ns#"
   xmlns:svg="http://www.w3.org/2000/svg"
   xmlns="http://www.w3.org/2000/svg"
   viewBox="0 0 585 585.00001"
   height="585"
   width="585"
   id="svg4518"
   version="1.1">
  <metadata
     id="metadata4524">
    <rdf:RDF>
      <cc:Work
         rdf:about="">
        <dc:format>image/svg+xml</dc:format>
        <dc:type
           rdf:resource="http://purl.org/dc/dcmitype/StillImage" />
        <dc:title></dc:title>
      </cc:Work>
    </rdf:RDF>
  </metadata>
  <defs
     id="defs4522" />
  <path
     id="path5089"
     d="m 238.61916,581.91925 c -30.06532,-6.40652 -63.2228,-21.92979 -75.89469,-35.53144 -10.76979,-11.56 -10.82292,-12.79476 -10.82292,-251.45987 0,-175.52251 1.61196,-243.380743 6.01089,-253.035287 C 170.89093,13.40801 237.09291,-3.9057857 315.20976,0.75475164 371.24934,4.0981326 399.33047,12.03371 418.50519,29.945551 l 14.59326,13.632175 v 248.798504 248.7985 l -16.66428,12.71045 c -9.16536,6.99075 -26.6774,16.32011 -38.91564,20.73189 -26.19073,9.44154 -108.54221,13.77087 -138.89937,7.30218 z m 130.17267,-23.41732 c 12.96208,-4.06546 29.34431,-11.93586 36.40496,-17.48975 l 12.83754,-10.09803 V 380.51313 230.11205 l -13.80877,-5.77689 c -19.93149,-8.33834 -169.18664,-11.37336 -203.99083,-4.1481 l -28.38974,5.89368 1.32639,156.54719 1.32635,156.54718 23.23826,11.53525 c 41.15538,20.42916 119.39962,23.99318 171.05584,7.79157 z M 259.86107,197.34257 c 46.88884,-2.99651 129.44006,2.85997 149.38586,10.59796 8.14532,3.16 8.7874,-2.47383 8.7874,-77.10565 V 50.320124 L 404.82536,39.929949 C 384.33278,23.810487 355.05516,17.950595 295.01069,17.950595 c -55.52268,0 -90.77513,6.187989 -111.72556,19.611676 -10.9617,7.023546 -11.29809,9.686832 -11.29809,89.447179 v 82.20811 l 18.83015,-4.33299 c 10.35659,-2.38314 41.42633,-5.77704 69.04388,-7.542 z m -14.2272,-50.67148 c -1.84119,-1.84114 -3.3476,-17.57898 -3.3476,-34.97291 0,-38.40231 6.849,-44.085501 53.45257,-44.354244 41.2917,-0.238114 51.99627,8.982583 51.99627,44.788444 0,14.20923 -2.71154,28.54655 -6.02565,31.86066 -6.4018,6.4018 -90.02102,8.73262 -96.07559,2.67805 z M 326.683,108.59236 325.13893,87.251521 H 292.5 259.86107 l -1.54407,21.340839 -1.54407,21.34083 H 292.5 328.22707 Z"
     style="fill:#010101;stroke-width:5.02137327;fill-opacity:1" />
  <path
     id="path5659"
     d="m 276.02315,484.10325 c 0,-1.21462 -0.47753,-2.2084 -1.06147,-2.2084 -0.58378,0 -1.06142,-1.24213 -1.06142,-2.76035 0,-1.51826 -0.47753,-2.7604 -1.06147,-2.7604 -0.58378,0 -1.06146,-0.99378 -1.06146,-2.20835 0,-1.21462 -0.47754,-2.20835 -1.06142,-2.20835 -0.58379,0 -1.06147,-0.99373 -1.06147,-2.20829 0,-1.21462 -0.47753,-2.2084 -1.06142,-2.2084 -0.58383,0 -1.06147,-0.99373 -1.06147,-2.2083 0,-1.21457 -0.47753,-2.2083 -1.06141,-2.2083 -0.58384,0 -1.06147,-0.99378 -1.06147,-2.2084 0,-1.21457 -0.41979,-2.2083 -0.93267,-2.2083 -0.51299,0 -1.52625,-1.49065 -2.25169,-3.3125 -0.72543,-1.82186 -1.6807,-3.31245 -2.12288,-3.31245 -0.44238,0 -1.3974,-1.4907 -2.12289,-3.31255 -0.72544,-1.82186 -1.63571,-3.31245 -2.02281,-3.31245 -0.38715,0 -1.48386,-1.3737 -2.43727,-3.05264 -2.35408,-4.14545 -23.71922,-26.75986 -25.28167,-26.75986 -0.68742,0 -2.58846,-1.49059 -4.22453,-3.31245 -1.63606,-1.8219 -3.40941,-3.31255 -3.94077,-3.31255 -0.53136,0 -1.91239,-0.86945 -3.06897,-1.93222 -4.23206,-3.889 -27.805,-16.83852 -30.65232,-16.83852 -0.88632,0 -1.61145,-0.67779 -1.61145,-1.50621 0,-1.87544 6.67832,-2.91049 18.77928,-2.91049 9.84666,0 22.0611,2.4549 28.14741,5.65713 2.16602,1.13965 4.67369,2.07202 5.57257,2.07202 0.89902,0 1.6345,0.49711 1.6345,1.10415 0,0.60728 0.62642,1.1042 1.39208,1.1042 0.76556,0 2.41734,0.99373 3.67062,2.2083 1.25324,1.21462 2.68292,2.20835 3.17708,2.20835 0.81331,0 4.58511,3.2658 11.92772,10.32776 1.45946,1.40372 3.37009,3.69005 4.24577,5.08082 0.87568,1.39077 2.18922,3.17758 2.91898,3.97075 0.72975,0.79318 1.32679,1.97441 1.32679,2.62508 0,0.65072 0.47754,1.18308 1.06147,1.18308 0.58379,0 1.06142,0.74527 1.06142,1.6562 0,0.91098 0.47753,1.65625 1.06147,1.65625 0.58378,0 1.06142,0.99378 1.06142,2.20835 0,1.21457 0.47753,2.2083 1.06146,2.2083 0.58384,0 1.06147,1.24224 1.06147,2.76045 0,1.51821 0.47753,2.76045 1.06142,2.76045 0.58378,0 1.06147,1.46122 1.06147,3.24732 0,1.786 0.47753,3.55438 1.06142,3.92973 0.58378,0.3751 1.06151,2.889 1.06151,5.58598 0,2.69698 0.47754,4.90352 1.06142,4.90352 0.63641,0 1.06142,4.39495 1.06142,10.97652 0,6.12663 -0.469,11.278 -1.06142,11.65892 -0.58383,0.3751 -1.06142,2.64054 -1.06142,5.03388 0,2.39339 -0.47753,4.35152 -1.06151,4.35152 -0.58384,0 -1.06142,-0.99373 -1.06142,-2.2083 z m 30.78192,-1.43546 c 0,-2.00403 -0.50962,-4.17391 -1.13252,-4.82182 -1.96928,-2.04852 0.19533,-34.59686 2.30084,-34.59686 0.52499,0 0.95457,-1.49065 0.95457,-3.3125 0,-1.82191 0.47753,-3.31245 1.06151,-3.31245 0.58374,0 1.06142,-1.24224 1.06142,-2.76045 0,-1.51821 0.47753,-2.76045 1.06142,-2.76045 0.58384,0 1.06147,-0.99373 1.06147,-2.2083 0,-1.21457 0.47753,-2.20835 1.06142,-2.20835 0.58378,0 1.06146,-0.88406 1.06146,-1.96451 0,-1.08055 0.95527,-2.68086 2.12289,-3.55634 1.16757,-0.87537 2.12289,-2.17691 2.12289,-2.89226 0,-3.35603 18.76577,-20.19767 24.67859,-22.14827 1.02165,-0.33694 1.85761,-1.05173 1.85761,-1.58821 0,-0.53638 0.62676,-0.97535 1.39277,-0.97535 0.76601,0 3.27369,-0.93473 5.57257,-2.07714 9.99871,-4.96885 33.18566,-7.37941 43.18798,-4.48977 3.92682,1.13438 5.48314,3.25446 2.38907,3.25446 -2.98983,0 -26.62478,12.77492 -30.06256,16.24911 -0.77138,0.77962 -1.82441,1.41748 -2.33996,1.41748 -0.51554,0 -2.13152,1.24224 -3.59098,2.76045 -1.45947,1.51822 -3.14931,2.7604 -3.75514,2.7604 -1.4804,0 -22.24629,21.49615 -26.13298,27.05205 -1.69939,2.42914 -3.93093,5.22022 -4.95906,6.20245 -1.02808,0.98213 -1.86921,2.48729 -1.86921,3.34479 0,0.8574 -0.95531,2.27523 -2.12288,3.15066 -1.16762,0.87542 -2.12294,2.47569 -2.12294,3.55628 0,1.08045 -0.47753,1.96452 -1.06142,1.96452 -0.58378,0 -1.06146,0.99373 -1.06146,2.2083 0,1.21462 -0.47754,2.2084 -1.06147,2.2084 -0.58379,0 -1.06142,0.99373 -1.06142,2.2083 0,1.21457 -0.47753,2.2083 -1.06147,2.2083 -0.58378,0 -1.06142,0.99378 -1.06142,2.2084 0,1.21456 -0.47753,2.20829 -1.06146,2.20829 -0.58379,0 -1.06142,0.99373 -1.06142,2.20835 0,1.21457 -0.47753,2.20835 -1.06147,2.20835 -0.58384,0 -1.06142,0.96441 -1.06142,2.14313 0,1.17871 -0.47753,2.45023 -1.06142,2.82557 -0.58383,0.3756 -1.06151,1.64686 -1.06151,2.82558 0,1.17877 -0.47754,2.14317 -1.06142,2.14317 -0.58379,0 -1.06147,-1.63973 -1.06147,-3.64376 z m -20.6982,-82.10101 c -6.59397,-1.85519 -16.45243,-9.33839 -16.45243,-12.4884 0,-0.62757 -0.47753,-1.14096 -1.06142,-1.14096 -0.58383,0 -1.06147,-1.24224 -1.06147,-2.76045 0,-1.51826 -0.47753,-2.7604 -1.06141,-2.7604 -0.61854,0 -1.06147,-3.65882 -1.06147,-8.76812 0,-4.82253 0.47753,-9.07528 1.06147,-9.45063 0.58373,-0.37509 1.06141,-1.64681 1.06141,-2.82552 0,-1.17877 0.47754,-2.14317 1.06147,-2.14317 0.58379,0 1.06142,-0.53589 1.06142,-1.19072 0,-0.65494 1.94659,-3.1363 4.32576,-5.51417 7.51424,-7.51022 20.44201,-9.61749 30.01426,-4.89238 4.18029,2.06354 11.3022,8.59549 11.3022,10.36597 0,0.67719 0.47754,1.2313 1.06142,1.2313 0.58379,0 1.06147,1.24213 1.06147,2.76039 0,1.51822 0.47753,2.7604 1.06142,2.7604 0.61918,0 1.06147,3.68057 1.06147,8.83335 0,5.15279 -0.44239,8.8333 -1.06147,8.8333 -0.58379,0 -1.06142,0.99378 -1.06142,2.20835 0,1.21457 -0.47753,2.20835 -1.06147,2.20835 -0.58378,0 -1.06142,0.79433 -1.06142,1.76526 0,2.27393 -5.62609,7.73322 -10.79786,10.47785 -4.09206,2.17165 -14.51061,3.58235 -18.39193,2.4904 z m -97.91844,-42.46952 c -3.81012,-1.14442 -4.65963,-3.18139 -1.32675,-3.18139 1.16757,0 2.12289,-0.49711 2.12289,-1.10415 0,-0.60728 0.72704,-1.10415 1.61567,-1.10415 2.76206,0 22.20688,-10.77486 26.40228,-14.63017 1.15658,-1.06277 2.53761,-1.93227 3.06897,-1.93227 0.53136,0 2.30471,-1.49065 3.94077,-3.3125 1.63607,-1.82191 3.51783,-3.3125 4.1817,-3.3125 1.35954,0 17.99951,-17.19414 22.88521,-23.64731 1.75136,-2.31324 4.00601,-5.20269 5.01033,-6.42088 1.00433,-1.21818 2.11124,-3.14965 2.45977,-4.29212 0.34848,-1.14246 1.0213,-2.07719 1.49496,-2.07719 0.47352,0 1.45465,-1.49059 2.18008,-3.3125 0.72544,-1.8218 1.7387,-3.31245 2.25169,-3.31245 0.51298,0 0.93267,-0.99373 0.93267,-2.20835 0,-1.21457 0.47753,-2.20835 1.06147,-2.20835 0.58373,0 1.06141,-0.99373 1.06141,-2.20835 0,-1.21457 0.47754,-2.2083 1.06147,-2.2083 0.58379,0 1.06142,-0.99373 1.06142,-2.20835 0,-1.21456 0.47753,-2.20829 1.06147,-2.20829 0.58378,0 1.06142,-0.99378 1.06142,-2.20835 0,-1.21457 0.47753,-2.2083 1.06146,-2.2083 0.58384,0 1.06147,-1.24219 1.06147,-2.76045 0,-1.51822 0.47753,-2.7604 1.06142,-2.7604 0.58378,0 1.06147,-0.99373 1.06147,-2.20835 0,-1.21457 0.47753,-2.2083 1.06142,-2.2083 0.58378,0 1.06151,1.95818 1.06151,4.35147 0,2.39334 0.47754,4.65858 1.06142,5.03393 0.59242,0.38112 1.06142,5.53229 1.06142,11.65887 0,6.58157 -0.42531,10.97652 -1.06142,10.97652 -0.58383,0 -1.06142,2.20659 -1.06142,4.90357 0,2.69698 -0.47753,5.21068 -1.06151,5.58598 -0.58384,0.3756 -1.06142,2.14373 -1.06142,3.92973 0,1.786 -0.47753,3.24732 -1.06147,3.24732 -0.58378,0 -1.06142,0.99383 -1.06142,2.2084 0,1.21457 -0.47753,2.20825 -1.06147,2.20825 -0.58378,0 -1.06146,0.6463 -1.06146,1.43616 0,2.0314 -2.49648,7.37831 -3.44969,7.38865 -0.43786,0.004 -0.79609,0.52644 -0.79609,1.15939 0,1.57149 -1.35587,3.22191 -10.93725,13.31261 -4.55604,4.79822 -8.75542,8.72408 -9.33208,8.72408 -0.5766,0 -2.07377,0.99368 -3.32701,2.20825 -1.25328,1.21457 -2.90506,2.20835 -3.67062,2.20835 -0.76566,0 -1.39208,0.49712 -1.39208,1.1042 0,0.60729 -0.73548,1.10415 -1.6345,1.10415 -0.89888,0 -3.40655,0.93237 -5.57257,2.07202 -9.30486,4.89559 -33.6545,7.37208 -43.47701,4.42182 z m 175.40405,-0.85378 c -4.08659,-1.05961 -8.95878,-2.76206 -10.82713,-3.7833 -1.86835,-1.02125 -4.13721,-1.85676 -5.04186,-1.85676 -0.9047,0 -1.64485,-0.49711 -1.64485,-1.10415 0,-0.60728 -0.51103,-1.1042 -1.13559,-1.1042 -3.38089,0 -24.33915,-18.04681 -24.33915,-20.95795 0,-0.56375 -1.19413,-2.26715 -2.65364,-3.78537 -1.45946,-1.51821 -2.6536,-3.52831 -2.6536,-4.46681 0,-0.93864 -0.47753,-1.70651 -1.06146,-1.70651 -0.58379,0 -1.06142,-0.99373 -1.06142,-2.2083 0,-1.21457 -0.47753,-2.2084 -1.06147,-2.2084 -0.58384,0 -1.06142,-1.24209 -1.06142,-2.76035 0,-1.51826 -0.47753,-2.76045 -1.06142,-2.76045 -0.58383,0 -1.06151,-1.49059 -1.06151,-3.31245 0,-1.82185 -0.42983,-3.31255 -0.95457,-3.31255 -2.10546,0 -4.27012,-32.54829 -2.30084,-34.59681 0.6229,-0.64796 1.13252,-2.81779 1.13252,-4.82182 0,-2.00408 0.47753,-3.64376 1.06147,-3.64376 0.58383,0 1.06142,0.9644 1.06142,2.14317 0,1.17872 0.47753,2.45023 1.06151,2.82558 0.58374,0.37509 1.06142,1.64681 1.06142,2.82557 0,1.17872 0.47753,2.14318 1.06142,2.14318 0.58384,0 1.06147,0.99373 1.06147,2.2083 0,1.21457 0.47753,2.20835 1.06142,2.20835 0.58378,0 1.06146,0.99373 1.06146,2.20829 0,1.21462 0.47754,2.20835 1.06142,2.20835 0.58379,0 1.06147,0.99373 1.06147,2.2083 0,1.21462 0.47753,2.20835 1.06142,2.20835 0.58383,0 1.06147,0.99378 1.06147,2.20835 0,1.21462 0.47753,2.20835 1.06146,2.20835 0.58379,0 1.06142,0.88402 1.06142,1.96457 0,1.08049 0.95532,2.68081 2.12294,3.55623 1.16757,0.87543 2.12288,2.13358 2.12288,2.79595 0,0.66237 0.83586,2.16793 1.85751,3.34569 1.02165,1.17777 3.26083,4.12848 4.97603,6.55716 4.0531,5.73923 22.5539,24.84285 24.05901,24.84285 0.63826,0 2.49913,1.49059 4.13515,3.3125 1.63601,1.82185 3.40941,3.3125 3.94077,3.3125 0.53136,0 2.0315,1.03234 3.33349,2.29416 3.00589,2.91315 27.90201,16.47658 30.24333,16.47658 0.96576,0 1.75592,0.47352 1.75592,1.05228 0,3.62127 -24.30731,4.46777 -36.61987,1.27533 z"
     style="fill:#000000;stroke-width:1.08259499" />
</svg>
