<?xml version="1.0" encoding="UTF-8" standalone="no"?>
<svg
   xmlns:dc="http://purl.org/dc/elements/1.1/"
   xmlns:cc="http://creativecommons.org/ns#"
   xmlns:rdf="http://www.w3.org/1999/02/22-rdf-syntax-ns#"
   xmlns:svg="http://www.w3.org/2000/svg"
   xmlns="http://www.w3.org/2000/svg"
   xmlns:sodipodi="http://sodipodi.sourceforge.net/DTD/sodipodi-0.dtd"
   xmlns:inkscape="http://www.inkscape.org/namespaces/inkscape"
   height="585"
   viewBox="0 0 585 585"
   width="585"
   version="1.1"
   id="svg5682"
   sodipodi:docname="nibe_mode_default.svg"
   inkscape:version="0.92.4 (5da689c313, 2019-01-14)">
  <metadata
     id="metadata5688">
    <rdf:RDF>
      <cc:Work
         rdf:about="">
        <dc:format>image/svg+xml</dc:format>
        <dc:type
           rdf:resource="http://purl.org/dc/dcmitype/StillImage" />
        <dc:title />
      </cc:Work>
    </rdf:RDF>
  </metadata>
  <defs
     id="defs5686" />
  <sodipodi:namedview
     pagecolor="#ffffff"
     bordercolor="#666666"
     borderopacity="1"
     objecttolerance="10"
     gridtolerance="10"
     guidetolerance="10"
     inkscape:pageopacity="0"
     inkscape:pageshadow="2"
     inkscape:window-width="2560"
     inkscape:window-height="1388"
     id="namedview5684"
     showgrid="false"
     inkscape:zoom="0.86915209"
     inkscape:cx="199.79018"
     inkscape:cy="97.341141"
     inkscape:window-x="-8"
     inkscape:window-y="-8"
     inkscape:window-maximized="1"
     inkscape:current-layer="svg5682" />
  <path
     class="heroicon-ui"
     d="m 323.34991,526.43941 v -146.25 h -58.5 v 146.25 a 58.5,58.5 0 0 1 -58.5,58.5 h -87.75 a 58.5,58.5 0 0 1 -58.500002,-58.5 v -222.0075 l -8.775,8.775 a 29.25,29.25 0 1 1 -40.95,-41.535 L 273.62491,8.4219109 a 29.25,29.25 0 0 1 40.95,0 l 263.25,263.2499991 a 29.25,29.25 0 0 1 -40.95,41.535 l -8.775,-8.775 v 222.0075 a 58.5,58.5 0 0 1 -58.5,58.5 h -87.75 a 58.5,58.5 0 0 1 -58.5,-58.5 z m 146.25,0 v -280.5075 l -175.5,-175.499999 -175.5,175.499999 v 280.5075 h 87.75 v -146.25 c 0,-32.175 26.325,-58.5 58.5,-58.5 h 58.5 a 58.5,58.5 0 0 1 58.5,58.5 v 146.25 z"
     id="path5680"
     inkscape:connector-curvature="0"
     style="stroke-width:29.25;fill:#000000;fill-opacity:1" />
</svg>
