<?xml version="1.0" encoding="UTF-8" standalone="no"?>
<svg
   xmlns:dc="http://purl.org/dc/elements/1.1/"
   xmlns:cc="http://creativecommons.org/ns#"
   xmlns:rdf="http://www.w3.org/1999/02/22-rdf-syntax-ns#"
   xmlns:svg="http://www.w3.org/2000/svg"
   xmlns="http://www.w3.org/2000/svg"
   xmlns:sodipodi="http://sodipodi.sourceforge.net/DTD/sodipodi-0.dtd"
   xmlns:inkscape="http://www.inkscape.org/namespaces/inkscape"
   enable-background="new 0 0 96 96"
   height="585"
   id="clock"
   version="1.1"
   viewBox="0 0 585 585"
   width="585"
   xml:space="preserve"
   sodipodi:docname="nibe_mode_away.svg"
   inkscape:version="0.92.4 (5da689c313, 2019-01-14)"><metadata
     id="metadata6814"><rdf:RDF><cc:Work
         rdf:about=""><dc:format>image/svg+xml</dc:format><dc:type
           rdf:resource="http://purl.org/dc/dcmitype/StillImage" /><dc:title /></cc:Work></rdf:RDF></metadata><defs
     id="defs6812" /><sodipodi:namedview
     pagecolor="#ffffff"
     bordercolor="#666666"
     borderopacity="1"
     objecttolerance="10"
     gridtolerance="10"
     guidetolerance="10"
     inkscape:pageopacity="0"
     inkscape:pageshadow="2"
     inkscape:window-width="2560"
     inkscape:window-height="1388"
     id="namedview6810"
     showgrid="false"
     inkscape:zoom="0.43457604"
     inkscape:cx="-1705.3121"
     inkscape:cy="293.64291"
     inkscape:window-x="-8"
     inkscape:window-y="-8"
     inkscape:window-maximized="1"
     inkscape:current-layer="clock" /><path
     d="M 292.5,0 C 130.96023,0 0,130.96023 0,292.5 0,454.04642 130.96023,585 292.5,585 454.04642,585 585,454.04642 585,292.5 585,130.96023 454.04642,0 292.5,0 Z m 0,531.81818 C 160.32989,531.81818 53.181818,424.67011 53.181818,292.5 53.181818,160.32989 160.32989,53.181818 292.5,53.181818 c 132.17011,0 239.31818,107.148072 239.31818,239.318182 0,132.17011 -107.14807,239.31818 -239.31818,239.31818 z"
     id="path6805"
     inkscape:connector-curvature="0"
     style="stroke-width:6.64772749;fill:#000000;fill-opacity:1" /><path
     d="M 319.09091,281.48472 V 132.95455 c 0,-14.68483 -11.90608,-26.59091 -26.59091,-26.59091 -14.68483,0 -26.59091,11.90608 -26.59091,26.59091 V 292.5 c 0,0.0598 0.0199,0.11966 0.0199,0.17949 0.007,1.68187 0.17285,3.36375 0.50523,5.01903 0.15955,0.81767 0.45869,1.55557 0.69137,2.3533 0.25926,0.8775 0.45869,1.76829 0.81102,2.62585 0.38557,0.91739 0.90409,1.755 1.38272,2.61921 0.35898,0.66477 0.64483,1.32954 1.06364,1.96107 0.97722,1.46915 2.08739,2.84523 3.33051,4.07506 l 75.19245,75.19909 c 10.38375,10.38375 27.23573,10.38375 37.61284,0 10.38375,-10.38375 10.38375,-27.23574 0,-37.59954 z"
     id="path6807"
     inkscape:connector-curvature="0"
     style="stroke-width:6.64772749" /></svg>