<?xml version="1.0" encoding="UTF-8" standalone="no"?>
<svg
   xmlns:dc="http://purl.org/dc/elements/1.1/"
   xmlns:cc="http://creativecommons.org/ns#"
   xmlns:rdf="http://www.w3.org/1999/02/22-rdf-syntax-ns#"
   xmlns:svg="http://www.w3.org/2000/svg"
   xmlns="http://www.w3.org/2000/svg"
   xmlns:sodipodi="http://sodipodi.sourceforge.net/DTD/sodipodi-0.dtd"
   xmlns:inkscape="http://www.inkscape.org/namespaces/inkscape"
   enable-background="new 0 0 96 96"
   height="585"
   id="breifcase"
   version="1.1"
   viewBox="0 0 585 585"
   width="585"
   xml:space="preserve"
   sodipodi:docname="nibe_mode_vacation.svg"
   inkscape:version="0.92.4 (5da689c313, 2019-01-14)"><metadata
     id="metadata6249"><rdf:RDF><cc:Work
         rdf:about=""><dc:format>image/svg+xml</dc:format><dc:type
           rdf:resource="http://purl.org/dc/dcmitype/StillImage" /><dc:title /></cc:Work></rdf:RDF></metadata><defs
     id="defs6247" /><sodipodi:namedview
     pagecolor="#ffffff"
     bordercolor="#666666"
     borderopacity="1"
     objecttolerance="10"
     gridtolerance="10"
     guidetolerance="10"
     inkscape:pageopacity="0"
     inkscape:pageshadow="2"
     inkscape:window-width="2560"
     inkscape:window-height="1388"
     id="namedview6245"
     showgrid="false"
     inkscape:zoom="0.30729167"
     inkscape:cx="-1701.4845"
     inkscape:cy="802.43023"
     inkscape:window-x="-8"
     inkscape:window-y="-8"
     inkscape:window-maximized="1"
     inkscape:current-layer="breifcase" /><path
     d="m 505.22727,132.95454 h -79.77272 v -26.5909 c 0,-44.074435 -35.6983,-79.772731 -79.77273,-79.772731 H 239.31818 c -44.07443,0 -79.77273,35.698296 -79.77273,79.772731 v 26.5909 H 79.772727 C 35.718239,132.95454 0,168.67278 0,212.72727 v 265.90909 c 0,44.05449 35.718239,79.77273 79.772727,79.77273 H 505.22727 C 549.28176,558.40909 585,522.69085 585,478.63636 V 212.72727 c 0,-44.05449 -35.71824,-79.77273 -79.77273,-79.77273 z m -79.77272,53.18182 V 505.22727 H 159.54545 V 186.13636 Z M 212.72727,106.36364 c 0,-14.691479 11.89943,-26.590913 26.59091,-26.590913 h 106.36364 c 14.69148,0 26.59091,11.899434 26.59091,26.590913 v 26.5909 H 212.72727 Z M 53.181818,478.63636 V 212.72727 c 0,-14.69148 11.899432,-26.59091 26.590909,-26.59091 H 106.36364 V 505.22727 H 79.772727 c -14.691477,0 -26.590909,-11.89943 -26.590909,-26.59091 z m 478.636362,0 c 0,14.69148 -11.89943,26.59091 -26.59091,26.59091 H 478.63636 V 186.13636 h 26.59091 c 14.69148,0 26.59091,11.89943 26.59091,26.59091 z"
     id="path6242"
     inkscape:connector-curvature="0"
     style="stroke-width:6.64772749;fill:#000000;fill-opacity:1" /></svg>